<?xml version="1.0" encoding="UTF-8"?>
<!-- Fier Hub: quadratisch, Logo in 80% Flaeche; Hintergrund = App-Primary #1c69e3; Icon-Teile weiss -->
<svg xmlns="http://www.w3.org/2000/svg" viewBox="0 0 512 512">
  <rect width="512" height="512" fill="#1c69e3"/>
  <!-- Original 205.3333 x 163.5355 in 409.6 x 409.6 (80% von 512) zentriert skalieren -->
  <g transform="translate(51.2,92.888) scale(1.994895)">
    <defs>
      <clipPath id="clippath">
        <rect x=".5677" y="3.9001" width="204" height="159" fill="none"/>
      </clipPath>
      <clipPath id="clippath-1">
        <rect y="3.5355" width="205.3333" height="160" fill="none"/>
      </clipPath>
      <clipPath id="clippath-2">
        <rect x="30.6667" y="3.9" width="173.9011" height="159" fill="none"/>
      </clipPath>
      <clipPath id="clippath-3">
        <rect x="5.7456" width="128.3317" height="114.5595" fill="none"/>
      </clipPath>
    </defs>
    <g clip-path="url(#clippath)">
      <g clip-path="url(#clippath-1)">
        <g clip-path="url(#clippath-2)">
          <path d="M37.8229,135.1605h103.0938c4.7813,0,8.8385-3.5677,9.4844-8.2656l12.5625-94.3021v-.0417c2.1094-16.3333,16.1302-28.6927,32.625-28.6927h2.4688c3.3646,0,6.0781,2.7135,6.0781,6.0781s-2.7135,6.0781-6.0781,6.0781h-2.4688c-10.4167,0-19.25,7.7812-20.5885,18.1146v.0417l-12.5625,94.3021c-1.4167,10.7396-10.6563,18.8438-21.5208,18.8438h-3.6458c-.1198,8.8385-7.2552,15.9688-16.1302,15.9688s-16.0052-7.1302-16.1302-15.9688h-25.2031c-.125,8.8385-7.2552,15.9688-16.1302,15.9688s-16.0104-7.1302-16.1302-15.9688h-9.724c-3.3646,0-6.0833-2.7135-6.0833-6.0781s2.7188-6.0781,6.0833-6.0781Z" fill="#ffffff"/>
        </g>
      </g>
    </g>
    <g clip-path="url(#clippath-3)">
      <path d="M133.6543,61.6373c.1369-.1687.2176-.3937.2176-.6358v-7.4681c0-.2396-.0807-.4646-.2176-.6333-.1443-.1761-.3521-.3057-.5844-.3448-.9757-.2005-1.9269-.6113-2.8244-1.1982-2.2888-1.4917-4.2402-4.1669-5.4653-7.0964-1.2251-2.932-1.7606-6.2014-1.2251-8.8815.2079-1.0368.5771-2.0076,1.1371-2.8684.1834-.2959.313-.5624.313-.7532-.0098-.1296-.1051-.2983-.3448-.538l-5.2575-5.2771c-.1932-.1932-.4499-.2886-.7043-.2886-.2568,0-.5209.0954-.714.2886-1.3987,1.4061-3.4088,2.015-5.6243,2.015v-.0073c-2.0101,0-4.2109-.4964-6.2503-1.34-2.0565-.8608-3.9786-2.0737-5.3871-3.4773-1.5675-1.5821-2.5603-3.4382-2.5603-5.4287,0-.2739-.1125-.5209-.2959-.7067-.1761-.1858-.4328-.2959-.7043-.2959h-7.4338c-.2494,0-.4646.0783-.6333.2152-.1761.1443-.3032.3546-.3521.5869-.2079,1.027-.6407,2.015-1.2569,2.9466-1.4966,2.2644-4.1375,4.1766-7.0255,5.3798-2.888,1.1958-6.0987,1.7117-8.747,1.1811-1.0808-.2176-2.081-.6113-2.9613-1.1958-.1907-.1296-.4328-.1858-.6627-.1614-.2176.0147-.4328.1198-.6016.2886l-5.2648,5.2771c-.1687.1761-.2641.3937-.2886.6089-.0245.225.0318.4671.1687.6676.5844.8828.9757,1.8854,1.1909,2.9711.5282,2.6581.0171,5.8786-1.1835,8.7763-1.1933,2.8977-3.1056,5.5412-5.3626,7.0499-.9194.6187-1.9049,1.0515-2.9295,1.2618-.2299.0391-.4402.1687-.582.3448-.1369.1687-.225.3937-.225.6333v7.4681c0,.2421.088.4671.225.6358.1418.1761.3521.2959.582.3448,1.0246.2079,2.0101.6431,2.9295,1.2594,2.2571,1.5112,4.1693,4.1522,5.3626,7.0524,1.2007,2.8977,1.7117,6.1183,1.1835,8.7763-.2152,1.0833-.6064,2.0883-1.1909,2.9711-.1369.2005-.1932.4402-.1687.6651.0245.2176.1198.4353.2886.6113l5.2648,5.2746c.1687.1687.3839.2739.6016.291.2299.0245.472-.0318.67-.1614.873-.5942,1.8829-.9806,2.954-1.1958,2.6483-.538,5.859-.0171,8.747,1.1787,2.888,1.2056,5.5289,3.1178,7.0255,5.3822.6162.9219,1.0491,1.9098,1.2569,2.9466.0489.2323.1761.4402.3521.5844.1687.1369.3839.2176.6333.2176h7.4338c.247,0,.4646-.0807.6333-.2176.1761-.1443.3032-.3521.3521-.5844.2079-1.0368.6382-2.015,1.2545-2.9466,1.4966-2.2644,4.1375-4.1766,7.0279-5.3822,2.888-1.1958,6.0962-1.7093,8.747-1.1787,1.0808.2152,2.081.6089,2.9515,1.1958.2005.1296.4402.1858.6725.1614.2176-.0245.4328-.1223.6016-.291l5.2575-5.2746c.1761-.1761.2714-.3937.2959-.6113.0245-.225-.0318-.4646-.1687-.6651-.5844-.8828-.9757-1.8878-1.1909-2.9711-.5282-2.6581-.0171-5.8786,1.1835-8.7763,1.1933-2.9002,3.1056-5.5412,5.3626-7.0524.9194-.6162,1.9025-1.0515,2.9271-1.2594v.0073c.2323-.0489.4328-.1761.5844-.3521ZM109.2864,73.1598c-8.747,8.7763-22.9349,8.7763-31.6819,0-8.747-8.7763-8.747-23.0058,0-31.7821,8.747-8.7788,22.9349-8.7788,31.6819,0,8.747,8.7763,8.747,23.0058,0,31.7821ZM53.6523,15.1978v15.6527h4.4579c-.0416.2005-.0734.3937-.0978.5844-.1125,1.1249.1614,2.2742.8021,3.245.0318.0489.0538.088.088.1369h-7.2284c-1.0955,0-1.9758-.8828-1.9758-1.9832V15.1978c0-1.7166-.6969-3.2743-1.8242-4.4065-1.1297-1.1249-2.6801-1.8316-4.3869-1.8316h-3.0396c-.0978,0-.1907-.0098-.2837-.022-.8412,2.8317-3.4528,4.8956-6.5511,4.8956-3.7683,0-6.825-3.0665-6.825-6.8567,0-3.7829,3.0567-6.8494,6.825-6.8494,3.1007,0,5.7123,2.0663,6.5511,4.8956.0929-.0122.1858-.022.2837-.022h3.0396c2.8024,0,5.3382,1.1395,7.1795,2.9882,1.8413,1.8462,2.9858,4.3992,2.9858,7.2089ZM13.4851,32.5915c3.1007,0,5.7172,2.0761,6.5486,4.9151.1394-.0318.2837-.0489.4304-.0489h39.0864c.0391,1.2373-.1858,2.6092-.6089,3.9663h-13.2611v9.1945c0,2.8121-1.1371,5.3578-2.976,7.204-1.8413,1.8462-4.3869,2.9955-7.1869,2.9955h-3.042c-.0954,0-.1907-.0098-.2837-.0245-.8412,2.8268-3.4504,4.8907-6.5413,4.8907-3.7707,0-6.8274-3.0689-6.8274-6.8494,0-3.7829,3.0567-6.8494,6.8274-6.8494,3.0885,0,5.7001,2.0614,6.5413,4.8882.0929-.0147.1883-.022.2837-.022h3.042c1.7117,0,3.2645-.6994,4.3943-1.8316,1.12-1.1322,1.8169-2.6899,1.8169-4.4016v-9.1945h-21.2647c-.1467,0-.291-.0171-.4304-.0489-.8314,2.8415-3.4479,4.9151-6.5486,4.9151-3.7683,0-6.825-3.0665-6.825-6.8494,0-3.7805,3.0567-6.8494,6.825-6.8494ZM59.5579,76.6126H19.3491c-.8485,2.8146-3.4528,4.8662-6.534,4.8662-3.7707,0-6.8274-3.0665-6.8274-6.8494s3.0567-6.8494,6.8274-6.8494c3.0811,0,5.6854,2.0516,6.534,4.8662h39.441c.4646,1.34.7434,2.7046.7678,3.9663ZM58.8145,79.8576c-.6407.9708-.9146,2.1201-.8021,3.2352.0245.2005.0562.3937.0978.5942h-4.4823v15.6502c0,2.8121-1.1371,5.3651-2.9784,7.2113-1.8389,1.8462-4.3845,2.9882-7.1844,2.9882h-3.042c-.0978,0-.1907-.0098-.2837-.0245-.8412,2.8317-3.4504,4.8907-6.5413,4.8907-3.7707,0-6.8274-3.0591-6.8274-6.8494,0-3.7829,3.0567-6.8494,6.8274-6.8494,3.0909,0,5.7025,2.0639,6.5413,4.8956.0929-.0122.1883-.022.2837-.022h3.042c1.7117,0,3.2645-.7067,4.3845-1.8316,1.1297-1.1322,1.8242-2.6899,1.8242-4.409v-17.6334c0-1.1004.8901-1.9832,1.9783-1.9832h7.2504c-.0342.0489-.0562.088-.088.1369Z" fill="#ffffff" fill-rule="evenodd"/>
    </g>
  </g>
</svg>
